#!OML:ASF F:\VICON\USERDATA\INSTALL\rory3\rory3.ASF
:FULLY-SPECIFIED
:DEGREES
401
root 3.26933 17.7139 8.3845 6.64787 34.4203 0.236902
lowerback 24.9584 3.14992 2.33861
upperback 6.75305 4.88747 1.04287
thorax -6.26528 2.41372 -1.64211
lowerneck -19.2922 -11.4774 -14.1019
upperneck 16.8854 -14.4901 12.423
head 10.579 -6.32495 4.36332
rclavicle 5.96354e-015 -1.82882e-014
rhumerus -8.27544 27.0219 -80.5849
rradius 50.0063
rwrist 17.3018
rhand -41.5558 4.60927
rfingers 7.12502
rthumb -14.4672 -24.8664
lclavicle 5.96354e-015 -1.82882e-014
lhumerus -31.8004 -34.35 101.534
lradius 67.9067
lwrist -5.08943
lhand -27.0688 25.9604
lfingers 7.12502
lthumb -0.486558 55.9396
rfemur -26.9506 -11.3941 18.3627
rtibia 39.0557
rfoot -13.389 -6.77704
rtoes 1.81264
lfemur -28.2349 -2.48031 -18.5546
ltibia 32.0648
lfoot -6.96724 -8.05864
ltoes -3.95481
402
root 3.29864 17.7242 8.42768 6.00475 34.3105 0.190087
lowerback 24.5255 3.14582 2.16219
upperback 6.50073 4.82325 0.975517
thorax -6.337 2.37852 -1.58068
lowerneck -19.2603 -11.4574 -14.1995
upperneck 17.0091 -14.4973 12.5973
head 10.6435 -6.31507 4.44241
rclavicle 5.68524e-014 2.22639e-014
rhumerus -9.38283 27.3736 -81.0529
rradius 50.9681
rwrist 16.6098
rhand -41.2296 5.06909
rfingers 7.12502
rthumb -14.1528 -24.4289
lclavicle 5.68524e-014 2.22639e-014
lhumerus -32.083 -33.9113 101.55
lradius 67.9675
lwrist -4.24545
lhand -27.0367 26.4429
lfingers 7.12502
lthumb -0.45549 56.4221
rfemur -25.815 -11.255 18.232
rtibia 38.6422
rfoot -13.4371 -6.82295
rtoes 1.35055
lfemur -27.1879 -2.56042 -18.5413
ltibia 31.8323
lfoot -7.18922 -7.83653
ltoes -4.62094
403
root 3.3224 17.7324 8.4752 5.27476 34.1013 0.0457416
lowerback 24.173 3.1812 1.95016
upperback 6.25364 4.80721 0.945666
thorax -6.44636 2.36619 -1.47724
lowerneck -19.1816 -11.4366 -14.29
upperneck 17.0953 -14.5229 12.8316
head 10.6941 -6.30935 4.54042
rclavicle -2.94201e-014 -7.95139e-015
rhumerus -10.5197 27.6905 -81.5527
rradius 52.0223
rwrist 15.908
rhand -40.494 5.80754
rfingers 7.12502
rthumb -13.444 -23.7386
lclavicle -2.94201e-014 -7.95139e-015
lhumerus -32.3325 -33.5028 101.514
lradius 68.1397
lwrist -3.30015
lhand -27.0528 26.9606
lfingers 7.12502
lthumb -0.471119 56.9398
rfemur -24.6457 -10.955 18.2121
rtibia 38.2183
rfoot -13.502 -6.93816
rtoes 0.980071
lfemur -26.1133 -2.5666 -18.4131
ltibia 31.6074
lfoot -7.36766 -7.56256
ltoes -5.10651
404
root 3.34843 17.7433 8.52172 4.48771 33.9395 -0.189789
lowerback 23.7865 3.16313 1.85871
upperback 6.07179 4.75234 0.926358
thorax -6.45767 2.33793 -1.41453
lowerneck -19.3001 -11.4084 -14.2804
upperneck 17.3264 -14.5268 12.9415
head 10.8102 -6.28944 4.57675
rclavicle -3.77691e-014 7.15625e-015
rhumerus -11.6 27.827 -82.0522
rradius 53.1738
rwrist 15.5238
rhand -39.9189 5.79106
rfingers 7.12502
rthumb -12.8896 -23.7909
lclavicle -3.77691e-014 7.15625e-015
lhumerus -32.3775 -33.0396 101.387
lradius 68.2269
lwrist -2.42937
lhand -26.7444 27.3578
lfingers 7.12502
lthumb -0.173268 57.3375
rfemur -23.4705 -10.6485 18.2742
rtibia 37.7837
rfoot -13.5754 -7.07175
rtoes 0.798597
lfemur -25.0264 -2.59583 -18.2187
ltibia 31.3824
lfoot -7.64913 -7.33665
ltoes -6.18408
405
root 3.37593 17.7562 8.5658 3.82762 33.7462 -0.288253
lowerback 23.3507 3.15688 1.68012
upperback 5.91111 4.68819 0.863454
thorax -6.42264 2.30742 -1.34348
lowerneck -19.48 -11.3449 -14.1959
upperneck 17.531 -14.481 13.0035
head 10.9101 -6.24485 4.59193
rclavicle 7.67309e-014 -7.95139e-016
rhumerus -12.5708 27.7029 -82.5741
rradius 54.1994
rwrist 15.4522
rhand -39.8047 5.71255
rfingers 7.12502
rthumb -12.7795 -23.8763
lclavicle 7.67309e-014 -7.95139e-016
lhumerus -32.3576 -32.6719 101.18
lradius 68.2898
lwrist -1.43258
lhand -26.3666 27.7614
lfingers 7.12502
lthumb 0.191714 57.7411
rfemur -22.3584 -10.3609 18.2115
rtibia 37.3353
rfoot -13.6486 -7.19174
rtoes 0.572455
lfemur -23.9703 -2.6991 -18.1444
ltibia 31.1429
lfoot -7.88382 -6.99526
ltoes -6.22236
406
root 3.4037 17.7674 8.61034 3.24046 33.5668 -0.405257
lowerback 22.8583 3.14416 1.4909
upperback 5.71123 4.6164 0.83632
thorax -6.40399 2.27253 -1.22426
lowerneck -19.5538 -11.2585 -14.151
upperneck 17.6703 -14.3913 13.0402
head 10.961 -6.19162 4.61593
rclavicle -2.82274e-014 2.38542e-015
rhumerus -13.5306 27.7072 -83.0665
rradius 55.1653
rwrist 15.1832
rhand -39.5844 6.25408
rfingers 7.12502
rthumb -12.5671 -23.348
lclavicle -2.82274e-014 2.38542e-015
lhumerus -32.45 -32.1956 101.048
lradius 68.4894
lwrist -0.4773
lhand -25.7379 28.1004
lfingers 7.12502
lthumb 0.79891 58.0787
rfemur -21.3661 -10.1204 18.1833
rtibia 36.9003
rfoot -13.6949 -7.22621
rtoes 0.667357
lfemur -23.0066 -2.80809 -18.041
ltibia 30.8866
lfoot -8.04859 -6.67261
ltoes -5.574
407
root 3.43155 17.7775 8.65614 2.65223 33.386 -0.535743
lowerback 22.3491 3.12442 1.33431
upperback 5.51214 4.54519 0.821704
thorax -6.37217 2.23806 -1.1096
lowerneck -19.5973 -11.1672 -14.0994
upperneck 17.839 -14.2948 13.041
head 11.0122 -6.13949 4.6286
rclavicle 8.54774e-015 9.54166e-015
rhumerus -14.4692 27.7877 -83.5023
rradius 56.0663
rwrist 14.994
rhand -39.3285 6.99235
rfingers 7.12502
rthumb -12.3204 -22.6247
lclavicle 8.54774e-015 9.54166e-015
lhumerus -32.6272 -31.7364 100.957
lradius 68.7871
lwrist 0.656592
lhand -25.7146 28.4918
lfingers 7.12502
lthumb 0.821346 58.47
rfemur -20.3892 -9.84173 18.1666
rtibia 36.4837
rfoot -13.7076 -7.26812
rtoes 1.02679
lfemur -22.0563 -2.8994 -17.9351
ltibia 30.6481
lfoot -8.22051 -6.3863
ltoes -5.74319
408
root 3.46033 17.786 8.7011 2.08708 33.1412 -0.70802
lowerback 21.851 3.12934 1.26079
upperback 5.2739 4.52489 0.799771
thorax -6.37845 2.22606 -1.06576
lowerneck -19.6351 -11.1409 -14.1781
upperneck 18.0927 -14.2879 13.1438
head 11.1279 -6.12424 4.68299
rclavicle -2.74323e-014 -2.38542e-014
rhumerus -15.4473 27.8137 -83.8805
rradius 57.0732
rwrist 14.8092
rhand -38.9304 7.48738
rfingers 7.12502
rthumb -11.9365 -22.1523
lclavicle -2.74323e-014 -2.38542e-014
lhumerus -32.8264 -31.262 100.904
lradius 68.9398
lwrist 1.82521
lhand -26.5477 29.2867
lfingers 7.12502
lthumb 0.0167401 59.2664
rfemur -19.4832 -9.54726 18.2148
rtibia 36.0878
rfoot -13.7233 -7.31385
rtoes 1.20857
lfemur -21.1584 -2.95233 -17.7927
ltibia 30.4454
lfoot -8.37894 -6.11948
ltoes -6.4973
409
root 3.48504 17.7917 8.74096 1.57182 32.9011 -0.815961
lowerback 21.5228 3.11253 1.22716
upperback 4.97139 4.48078 0.681021
thorax -6.53044 2.19843 -1.15482
lowerneck -19.6562 -11.0851 -14.1187
upperneck 18.3417 -14.2722 13.2034
head 11.2225 -6.10095 4.70256
rclavicle 4.11484e-014 -3.97569e-015
rhumerus -16.5239 27.877 -84.4326
rradius 58.1715
rwrist 14.4227
rhand -38.7158 8.06195
rfingers 7.12502
rthumb -11.7296 -21.5897
lclavicle 4.11484e-014 -3.97569e-015
lhumerus -32.9449 -30.765 100.736
lradius 68.9752
lwrist 3.06976
lhand -26.6673 29.1838
lfingers 7.12502
lthumb -0.0987923 59.1635
rfemur -18.6246 -9.23605 18.2156
rtibia 35.7156
rfoot -13.7573 -7.33555
rtoes 1.77795
lfemur -20.3222 -3.02082 -17.6973
ltibia 30.2652
lfoot -8.47679 -5.85232
ltoes -7.11291
410
root 3.51125 17.7966 8.78031 1.02091 32.748 -0.9496
lowerback 21.2652 2.98359 1.25383
upperback 4.64744 4.30363 0.540519
thorax -6.73876 2.10431 -1.27159
lowerneck -19.6129 -10.9107 -14.0401
upperneck 18.5896 -14.1223 13.3399
head 11.2901 -6.01031 4.77775
rclavicle 1.94312e-013 -3.26007e-014
rhumerus -17.6522 28.4728 -85.2306
rradius 59.28
rwrist 12.7957
rhand -38.9648 8.63546
rfingers 7.12502
rthumb -11.9697 -21.0023
lclavicle 1.94312e-013 -3.26007e-014
lhumerus -33.1963 -30.2338 100.466
lradius 69.181
lwrist 4.49141
lhand -26.2042 29.0944
lfingers 7.12502
lthumb 0.348503 59.0739
rfemur -17.7354 -9.02806 18.2376
rtibia 35.377
rfoot -13.8118 -7.361
rtoes 2.12593
lfemur -19.4779 -3.06813 -17.604
ltibia 30.0879
lfoot -8.64853 -5.6776
ltoes -7.7525
411
root 3.54127 17.8042 8.81672 0.588071 32.5913 -1.0754
lowerback 20.8472 2.89128 1.2984
upperback 4.36917 4.17968 0.457855
thorax -6.81502 2.03867 -1.33943
lowerneck -19.6437 -10.8029 -13.9683
upperneck 18.8014 -14.0181 13.3502
head 11.3538 -5.95202 4.79453
rclavicle 1.20066e-013 -4.53229e-014
rhumerus -18.6245 28.7512 -85.8054
rradius 60.3118
rwrist 11.7443
rhand -38.9877 8.97098
rfingers 7.12502
rthumb -11.9918 -20.6655
lclavicle 1.20066e-013 -4.53229e-014
lhumerus -33.3664 -29.7744 100.314
lradius 69.4483
lwrist 5.94113
lhand -25.6837 28.9629
lfingers 7.12502
lthumb 0.851191 58.941
rfemur -16.9785 -8.935 18.2652
rtibia 35.0433
rfoot -13.8258 -7.37179
rtoes 1.55208
lfemur -18.7622 -3.09987 -17.5509
ltibia 29.9088
lfoot -8.78623 -5.4561
ltoes -8.2506
412
root 3.56937 17.8096 8.85005 0.277522 32.4241 -1.00609
lowerback 20.3914 2.86788 1.1244
upperback 4.13342 4.10017 0.394147
thorax -6.83979 2 -1.27194
lowerneck -19.6033 -10.7398 -13.9584
upperneck 18.9273 -13.9543 13.3489
head 11.3822 -5.92244 4.80922
rclavicle 1.53462e-013 -4.27387e-014
rhumerus -19.2819 27.9538 -85.8231
rradius 61.4065
rwrist 14.1729
rhand -37.0759 8.64999
rfingers 7.12502
rthumb -10.1478 -21.0853
lclavicle 1.53462e-013 -4.27387e-014
lhumerus -33.4162 -29.4291 100.205
lradius 69.6943
lwrist 7.47336
lhand -25.2086 28.7047
lfingers 7.12502
lthumb 1.31014 58.6805
rfemur -16.2604 -8.82935 18.1022
rtibia 34.6932
rfoot -13.7955 -7.3127
rtoes 1.77096
lfemur -18.0771 -3.18955 -17.6543
ltibia 29.7124
lfoot -8.85799 -5.25151
ltoes -7.88954
413
root 3.59295 17.8158 8.8892 -0.180736 32.3737 -1.08566
lowerback 19.9433 2.79788 1.05167
upperback 3.9696 3.9851 0.359331
thorax -6.78493 1.94501 -1.21997
lowerneck -19.629 -10.7436 -14.0325
upperneck 19.0772 -13.989 13.4765
head 11.4666 -5.92552 4.86437
rclavicle -8.34896e-015 -1.96797e-014
rhumerus -19.9982 27.8269 -86.1709
rradius 62.4596
rwrist 13.6482
rhand -36.637 8.9645
rfingers 7.12502
rthumb -9.72445 -20.791
lclavicle -8.34896e-015 -1.96797e-014
lhumerus -33.4043 -29.157 100.076
lradius 69.9935
lwrist 9.20434
lhand -24.7783 29.1515
lfingers 7.12502
lthumb 1.72571 59.1243
rfemur -15.4195 -8.66877 18.0954
rtibia 34.3314
rfoot -13.8749 -7.38996
rtoes 2.19758
lfemur -17.2941 -3.3329 -17.5875
ltibia 29.4722
lfoot -8.9085 -5.13126
ltoes -7.53609
414
root 3.61468 17.8222 8.93219 -0.799299 32.2936 -1.29062
lowerback 19.5631 2.70664 1.02695
upperback 3.85222 3.85741 0.375156
thorax -6.71541 1.88402 -1.14079
lowerneck -19.5398 -10.742 -14.1165
upperneck 19.0486 -14.0065 13.6034
head 11.4606 -5.93036 4.9244
rclavicle -7.02207e-014 2.22639e-014
rhumerus -20.6166 27.7837 -86.4409
rradius 63.493
rwrist 13.0765
rhand -35.9845 9.55933
rfingers 7.12502
rthumb -9.09483 -20.2246
lclavicle -7.02207e-014 2.22639e-014
lhumerus -33.2953 -28.8166 99.9086
lradius 70.1859
lwrist 11
lhand -24.4703 29.999
lfingers 7.12502
lthumb 2.02312 59.9691
rfemur -14.4709 -8.35687 18.214
rtibia 33.9735
rfoot -13.9531 -7.58755
rtoes 2.62417
lfemur -16.3726 -3.47456 -17.4003
ltibia 29.1995
lfoot -9.01065 -4.94102
ltoes -7.50225
